<?xml version="1.0" standalone="no"?>
<!DOCTYPE svg PUBLIC "-//W3C//DTD SVG 20010904//EN"
 "http://www.w3.org/TR/2001/REC-SVG-20010904/DTD/svg10.dtd">
<svg version="1.0" xmlns="http://www.w3.org/2000/svg"
 width="700.000000pt" height="700.000000pt" viewBox="0 0 700.000000 700.000000"
 preserveAspectRatio="xMidYMid meet">
<metadata>
Created by potrace 1.11, written by Peter Selinger 2001-2013
</metadata>
<g transform="translate(0.000000,700.000000) scale(0.100000,-0.100000)"
fill="#000000" stroke="none">
<path d="M3350 6564 c-80 -47 -167 -98 -195 -113 -27 -16 -149 -86 -270 -156
-121 -70 -294 -170 -385 -222 -173 -100 -259 -150 -475 -275 -72 -42 -152 -88
-178 -102 -26 -15 -98 -57 -160 -93 -62 -36 -132 -77 -157 -91 -25 -14 -115
-65 -200 -115 -85 -49 -218 -126 -295 -170 -77 -44 -168 -97 -201 -116 l-62
-36 0 -1572 c0 -1155 3 -1575 12 -1582 9 -7 319 -188 437 -255 20 -12 68 -39
105 -60 38 -22 83 -47 99 -56 17 -10 116 -67 220 -128 214 -124 195 -113 425
-245 94 -54 180 -104 193 -110 12 -7 33 -20 47 -28 14 -9 174 -102 355 -207
182 -104 444 -255 582 -336 l253 -145 122 70 c68 39 130 75 138 80 18 11 373
215 415 239 17 9 118 68 225 130 107 62 209 120 225 130 95 54 368 212 411
237 27 17 70 41 95 55 34 20 560 322 736 424 18 11 107 62 198 114 l165 95 0
1575 0 1575 -208 119 c-114 66 -301 175 -417 242 -115 67 -226 131 -245 142
-19 11 -67 38 -107 61 -39 22 -87 49 -105 60 -18 10 -100 57 -181 105 -82 47
-167 97 -190 109 -23 13 -154 89 -292 169 -532 308 -984 568 -987 568 -2 -1
-68 -39 -148 -86z m-553 -1153 c226 -41 417 -141 573 -300 155 -156 250 -338
289 -551 35 -192 11 -294 -78 -339 -69 -35 -155 -20 -208 37 -34 37 -41 58
-48 149 -27 340 -240 583 -576 659 -53 12 -226 6 -289 -10 -443 -114 -665
-610 -451 -1008 85 -159 229 -281 396 -336 77 -26 117 -32 244 -38 402 -18
734 -228 914 -579 261 -510 47 -1153 -470 -1409 -259 -128 -587 -146 -830 -45
-13 5 -35 14 -50 20 -372 154 -638 550 -635 946 0 77 23 127 73 160 96 63 224
24 264 -82 4 -11 9 -45 11 -75 11 -167 47 -274 138 -399 255 -354 777 -382
1077 -58 254 273 241 711 -29 975 -127 124 -286 188 -487 197 -92 4 -124 8
-210 21 -58 10 -211 66 -282 104 -254 136 -438 365 -517 641 -39 137 -50 317
-27 445 19 100 20 107 42 174 154 477 675 790 1166 701z m1958 -1371 c0 -288
2 -330 15 -331 8 -1 157 -2 330 -3 l315 -1 -3 -25 c-7 -67 -132 -206 -230
-258 -100 -52 -153 -64 -290 -66 -70 0 -129 -4 -132 -8 -3 -3 -5 -285 -5 -625
1 -664 1 -666 53 -716 50 -48 86 -53 360 -53 138 1 252 -2 252 -5 0 -17 -31
-78 -60 -119 -63 -89 -146 -151 -251 -191 -71 -27 -112 -32 -274 -32 -159 0
-210 12 -287 68 -57 42 -101 103 -124 176 -17 50 -18 111 -18 776 0 488 -4
724 -11 726 -5 2 -155 3 -332 3 -178 -1 -323 3 -323 8 0 4 14 34 30 65 59 109
173 208 286 245 79 26 91 27 219 31 66 1 123 3 126 4 3 1 5 44 5 97 -2 198 44
332 152 441 52 51 159 122 187 123 7 0 10 -113 10 -330z"/>
</g>
</svg>
