<?xml version="1.0" encoding="utf-8"?>
<!-- Generator: Adobe Illustrator 16.0.0, SVG Export Plug-In . SVG Version: 6.00 Build 0)  -->
<!DOCTYPE svg PUBLIC "-//W3C//DTD SVG 1.1//EN" "http://www.w3.org/Graphics/SVG/1.1/DTD/svg11.dtd">
<svg version="1.1" id="图层_1" xmlns="http://www.w3.org/2000/svg" xmlns:xlink="http://www.w3.org/1999/xlink" x="0px" y="0px"
	 width="200px" height="200px" viewBox="0 0 200 200" enable-background="new 0 0 200 200" xml:space="preserve">
<g id="XMLID_1_">
	<g>
		<path fill="#3E3A39" d="M177.96,55v90l-77.94,45l-77.94-45V55l77.94-45L177.96,55z M155.02,94.14h-19.14V75
			c-5.82,2.05-10,7.61-10,14.14v5h-5c-6.53,0-12.09,4.18-14.14,10h19.14v40c0,5.521,4.48,10,10,10h5c6.53,0,12.09-4.18,14.14-10
			h-14.14c-2.76,0-5-2.239-5-5v-35h5C147.41,104.14,152.97,99.96,155.02,94.14z M100.02,80c2.76,0,5-2.24,5-5
			c0-16.57-13.43-30-30-30s-30,13.43-30,30c0,10.44,5.33,19.64,13.43,25c4.75,3.16,10.44,5,16.57,5c11.05,0,20,8.95,20,20
			s-8.95,20-20,20s-20-8.95-20-20c0-2.76-2.24-5-5-5c-2.76,0-5,2.24-5,5c0,16.57,13.43,30,30,30s30-13.43,30-30
			c0-10.44-5.33-19.64-13.43-25c-4.75-3.16-10.44-5-16.57-5c-11.05,0-20-8.95-20-20s8.95-20,20-20s20,8.95,20,20
			C95.02,77.76,97.26,80,100.02,80z"/>
	</g>
	<g>
	</g>
</g>
</svg>
